<svg width="19" height="19" viewBox="0 0 19 19" fill="none" xmlns="http://www.w3.org/2000/svg">
<path d="M8.86711 0.285111C9.22753 0.0791575 9.67253 0.0791575 10.0366 0.285111L16.355 3.89297L16.5131 3.95549V3.98859L18.2748 4.99629C18.7382 5.26109 18.9662 5.80539 18.8301 6.32027C18.694 6.83516 18.2269 7.19557 17.6937 7.19557H1.21375C0.680474 7.19557 0.213402 6.83516 0.077326 6.32027C-0.0587502 5.80539 0.169269 5.26109 0.632664 4.99629L2.39062 3.98859V3.95549L2.55244 3.89665L8.86711 0.285111ZM2.39062 8.36877H4.74437V15.43H6.21546V8.36877H8.56921V15.43H10.3345V8.36877H12.6883V15.43H14.1594V8.36877H16.5131V15.5882C16.5352 15.5992 16.5573 15.6139 16.5793 15.6286L18.3446 16.8055C18.7749 17.0924 18.9698 17.6293 18.8191 18.1258C18.6683 18.6223 18.2086 18.9606 17.69 18.9606H1.21375C0.695185 18.9606 0.239146 18.6223 0.0883592 18.1258C-0.0624279 17.6293 0.128814 17.0924 0.562787 16.8055L2.3281 15.6286C2.35017 15.6139 2.37223 15.6029 2.3943 15.5882V8.36877H2.39062Z" fill="black" fill-opacity="0.54"/>
</svg>
