<svg width="24" height="24" viewBox="0 0 24 24" fill="none" xmlns="http://www.w3.org/2000/svg">
<g clip-path="url(#clip0_41_11)">
<path d="M21.2936 2.6506C21.0261 1.86145 20.2771 1.29968 19.3943 1.29968H4.68139C3.79861 1.29968 3.06296 1.86145 2.78208 2.6506L0 10.6625V21.3628C0 22.0984 0.601892 22.7003 1.33754 22.7003H2.67508C3.41072 22.7003 4.01262 22.0984 4.01262 21.3628V20.0252H20.0631V21.3628C20.0631 22.0984 20.665 22.7003 21.4006 22.7003H22.7382C23.4738 22.7003 24.0757 22.0984 24.0757 21.3628V10.6625L21.2936 2.6506ZM5.14952 3.97476H18.9128L20.3038 7.98738H3.75848L5.14952 3.97476ZM21.4006 17.3501H2.67508V10.6625H21.4006V17.3501Z" fill="black" fill-opacity="0.54"/>
<path d="M6.01893 16.0126C7.12698 16.0126 8.02524 15.1144 8.02524 14.0063C8.02524 12.8983 7.12698 12 6.01893 12C4.91087 12 4.01262 12.8983 4.01262 14.0063C4.01262 15.1144 4.91087 16.0126 6.01893 16.0126Z" fill="black" fill-opacity="0.54"/>
<path d="M18.0568 16.0126C19.1648 16.0126 20.0631 15.1144 20.0631 14.0063C20.0631 12.8983 19.1648 12 18.0568 12C16.9487 12 16.0505 12.8983 16.0505 14.0063C16.0505 15.1144 16.9487 16.0126 18.0568 16.0126Z" fill="black" fill-opacity="0.54"/>
</g>
<defs>
<clipPath id="clip0_41_11">
<rect width="24" height="24" fill="white"/>
</clipPath>
</defs>
</svg>
