<svg width="21" height="20" viewBox="0 0 21 20" fill="none" xmlns="http://www.w3.org/2000/svg">
<path d="M10.8 18.025C10.25 18.025 9.77899 17.825 9.38699 17.425C8.99499 17.025 8.79932 16.55 8.79999 16C8.79999 15.45 8.99599 14.979 9.38799 14.587C9.77999 14.195 10.2507 13.9993 10.8 14L11.4 13.425C11.5333 13.2917 11.6877 13.1873 11.863 13.112C12.0383 13.0367 12.2173 12.9993 12.4 13C12.7833 13 13.1127 13.1417 13.388 13.425C13.6633 13.7083 13.8007 14.0417 13.8 14.425V14.85C13.8 15.1833 13.9083 15.4583 14.125 15.675C14.3417 15.8917 14.6167 16 14.95 16C15.2 16 15.425 15.925 15.625 15.775C15.825 15.625 15.9667 15.4333 16.05 15.2L16.35 14.375C16.5 13.975 16.7417 13.6457 17.075 13.387C17.4083 13.1283 17.7917 12.9993 18.225 13C18.4083 12.5333 18.5543 12.05 18.663 11.55C18.7717 11.05 18.8257 10.5333 18.825 10C18.825 8.51667 18.4543 7.16233 17.713 5.937C16.9717 4.71167 16.0007 3.74933 14.8 3.05V4C14.8 4.55 14.604 5.021 14.212 5.413C13.82 5.805 13.3493 6.00067 12.8 6H11.8V8C11.8 8.28333 11.704 8.521 11.512 8.713C11.32 8.905 11.0827 9.00067 10.8 9H9.79999V10.7C9.79999 11.0667 9.67499 11.375 9.42499 11.625C9.17499 11.875 8.86665 12 8.49999 12C8.26665 12 8.05399 11.95 7.86199 11.85C7.66999 11.75 7.51599 11.6083 7.39999 11.425L5.79999 9H4.79999V10C4.79999 10.5167 4.62499 10.9583 4.27499 11.325C3.92499 11.6917 3.50832 11.9083 3.02499 11.975C3.45832 13.7083 4.39599 15.15 5.83799 16.3C7.27999 17.45 8.93399 18.025 10.8 18.025ZM12.8 12C12.5167 12 12.279 11.9043 12.087 11.713C11.895 11.5217 11.7993 11.284 11.8 11C11.8 10.7167 11.896 10.479 12.088 10.287C12.28 10.095 12.5173 9.99933 12.8 10H13.8C14.0833 10 14.321 10.096 14.513 10.288C14.705 10.48 14.8007 10.7173 14.8 11C14.8 11.2833 14.704 11.521 14.512 11.713C14.32 11.905 14.0827 12.0007 13.8 12H12.8ZM15.125 9C14.7917 9 14.529 8.871 14.337 8.613C14.145 8.355 14.0993 8.06733 14.2 7.75L14.575 6.65C14.6417 6.45 14.7583 6.29167 14.925 6.175C15.0917 6.05833 15.275 6 15.475 6C15.8083 6 16.071 6.12933 16.263 6.388C16.455 6.64667 16.5007 6.934 16.4 7.25L16.025 8.35C15.9583 8.55 15.8417 8.70833 15.675 8.825C15.5083 8.94167 15.325 9 15.125 9ZM10.8 20C9.41665 20 8.11665 19.7373 6.89999 19.212C5.68332 18.6867 4.62499 17.9743 3.72499 17.075C2.82499 16.175 2.11265 15.1167 1.58799 13.9C1.06332 12.6833 0.800654 11.3833 0.799988 10C0.799988 8.61667 1.06265 7.31667 1.58799 6.1C2.11332 4.88333 2.82565 3.825 3.72499 2.925C4.62499 2.025 5.68332 1.31267 6.89999 0.788C8.11665 0.263333 9.41665 0.000666667 10.8 0C12.1833 0 13.4833 0.262667 14.7 0.788C15.9167 1.31333 16.975 2.02567 17.875 2.925C18.775 3.825 19.4877 4.88333 20.013 6.1C20.5383 7.31667 20.8007 8.61667 20.8 10C20.8 11.3833 20.5373 12.6833 20.012 13.9C19.4867 15.1167 18.7743 16.175 17.875 17.075C16.975 17.975 15.9167 18.6877 14.7 19.213C13.4833 19.7383 12.1833 20.0007 10.8 20Z" fill="black"/>
</svg>
