<svg width="21" height="22" viewBox="0 0 21 22" fill="none" xmlns="http://www.w3.org/2000/svg">
<path d="M15.5283 3.91562C15.5283 3.91562 16.6136 6.08628 15.5283 8.7393M18.9049 1.98615C18.9049 1.98615 21.0755 5.89333 18.9049 10.6688M8.77512 9.70404C9.21854 9.70404 9.65762 9.6167 10.0673 9.44701C10.4769 9.27732 10.8492 9.02861 11.1627 8.71506C11.4763 8.40152 11.725 8.02929 11.8947 7.61962C12.0644 7.20996 12.1517 6.77088 12.1517 6.32746C12.1517 5.88404 12.0644 5.44497 11.8947 5.0353C11.725 4.62563 11.4763 4.2534 11.1627 3.93986C10.8492 3.62631 10.4769 3.3776 10.0673 3.20791C9.65762 3.03822 9.21854 2.95088 8.77512 2.95088C7.8796 2.95088 7.02075 3.30663 6.38752 3.93986C5.75429 4.57309 5.39854 5.43194 5.39854 6.32746C5.39854 7.22299 5.75429 8.08183 6.38752 8.71506C7.02075 9.34829 7.8796 9.70404 8.77512 9.70404ZM1.5396 19.7373V20.3161H16.0106V19.7373C16.0106 17.5763 16.0106 16.4958 15.59 15.67C15.2201 14.9439 14.6297 14.3536 13.9037 13.9836C13.0778 13.563 11.9973 13.563 9.83633 13.563H7.71391C5.5529 13.563 4.4724 13.563 3.64658 13.9836C2.92051 14.3536 2.33019 14.9439 1.96022 15.67C1.5396 16.4958 1.5396 17.5763 1.5396 19.7373Z" stroke="black" stroke-opacity="0.54" stroke-width="2" stroke-linecap="round" stroke-linejoin="round"/>
</svg>
