<svg width="19" height="19" viewBox="0 0 19 19" fill="none" xmlns="http://www.w3.org/2000/svg">
<path d="M1.46 13.4075C1.18 13.4075 1.04 13.2675 1.04 12.9875V6.78747C1.04 6.50747 1.18 6.36747 1.46 6.36747C1.74 6.36747 1.88 6.50747 1.88 6.78747V10.5425L4.26 8.49747C4.47333 8.31414 4.67 8.32747 4.85 8.53747C5.03333 8.7508 5.02 8.94747 4.81 9.12747L2.985 10.7025L4.73 12.6875C4.91667 12.9041 4.90667 13.1008 4.7 13.2775C4.48667 13.4608 4.28667 13.4475 4.1 13.2375L2.345 11.2575L1.88 11.6575V12.9875C1.88 13.2675 1.74 13.4075 1.46 13.4075ZM11.6681 8.33747C12.2981 8.33747 12.7498 8.4858 13.0231 8.78247C13.2998 9.07914 13.4381 9.5708 13.4381 10.2575V12.9875C13.4381 13.2675 13.2981 13.4075 13.0181 13.4075C12.7381 13.4075 12.5981 13.2675 12.5981 12.9875V10.2575C12.5981 9.87747 12.5248 9.60247 12.3781 9.43247C12.2348 9.26247 11.9981 9.17747 11.6681 9.17747H11.2581C10.8781 9.17747 10.6065 9.26247 10.4431 9.43247C10.2798 9.60247 10.1981 9.87747 10.1981 10.2575V12.9875C10.1981 13.2675 10.0581 13.4075 9.77813 13.4075C9.49813 13.4075 9.35813 13.2675 9.35813 12.9875V10.2575C9.35813 9.87747 9.28479 9.60247 9.13813 9.43247C8.99479 9.26247 8.75813 9.17747 8.42813 9.17747H8.01812C7.63813 9.17747 7.36646 9.26247 7.20313 9.43247C7.03979 9.60247 6.95813 9.87747 6.95813 10.2575V12.9875C6.95813 13.2675 6.81813 13.4075 6.53813 13.4075C6.25813 13.4075 6.11813 13.2675 6.11813 12.9875V8.75747C6.11813 8.47747 6.25813 8.33747 6.53813 8.33747C6.81813 8.33747 6.95813 8.47747 6.95813 8.75747V8.98747C7.13479 8.75747 7.32813 8.59247 7.53813 8.49247C7.75146 8.38914 8.00479 8.33747 8.29813 8.33747H8.42813C8.84146 8.33747 9.16646 8.3958 9.40313 8.51247C9.63979 8.6258 9.81979 8.8108 9.94313 9.06747C10.1198 8.80414 10.3065 8.61747 10.5031 8.50747C10.7031 8.39414 10.9548 8.33747 11.2581 8.33747H11.6681ZM17.17 10.4275H15.34C15.22 10.4275 15.1233 10.3958 15.05 10.3325C14.9767 10.2658 14.94 10.1675 14.94 10.0375C14.94 9.70747 14.9983 9.43914 15.115 9.23247C15.2317 9.0258 15.3767 8.85747 15.55 8.72747C15.7233 8.59747 15.8933 8.4808 16.06 8.37747C16.3167 8.21747 16.4883 8.1008 16.575 8.02747C16.665 7.95414 16.71 7.85747 16.71 7.73747C16.71 7.6108 16.6967 7.53414 16.67 7.50747C16.6467 7.4808 16.57 7.46747 16.44 7.46747H15.94C15.87 7.46747 15.81 7.46914 15.76 7.47247C15.7133 7.47247 15.6767 7.4808 15.65 7.49747C15.5467 7.6308 15.4717 7.71914 15.425 7.76247C15.3783 7.8058 15.3067 7.82747 15.21 7.82747C15.08 7.82747 14.9783 7.7908 14.905 7.71747C14.8317 7.64414 14.81 7.5408 14.84 7.40747C14.9733 6.92747 15.34 6.68747 15.94 6.68747H16.44C17.14 6.68747 17.49 7.03747 17.49 7.73747C17.49 7.97747 17.4383 8.1758 17.335 8.33247C17.235 8.4858 17.1067 8.61747 16.95 8.72747C16.7967 8.83414 16.64 8.93747 16.48 9.03747C16.2967 9.1508 16.1483 9.2508 16.035 9.33747C15.9217 9.42414 15.8367 9.52747 15.78 9.64747H17.17C17.4367 9.64747 17.57 9.77747 17.57 10.0375C17.57 10.2975 17.4367 10.4275 17.17 10.4275Z" fill="black" fill-opacity="0.54"/>
</svg>
