<svg width="10" height="11" viewBox="0 0 12 21" fill="none" xmlns="http://www.w3.org/2000/svg">
<path d="M9.13186 19.7112L0.304012 10.9095C0.19923 10.8047 0.124835 10.6912 0.080827 10.569C0.0368187 10.4467 0.0151641 10.3158 0.0158626 10.176C0.0158626 10.0363 0.0375173 9.90536 0.080827 9.78311C0.124137 9.66087 0.198531 9.54735 0.304012 9.44257L9.13186 0.614721C9.37635 0.370231 9.68196 0.247986 10.0487 0.247986C10.4154 0.247986 10.7298 0.378963 10.9917 0.640917C11.2537 0.902871 11.3847 1.20848 11.3847 1.55776C11.3847 1.90703 11.2537 2.21264 10.9917 2.47459L3.29029 10.176L10.9917 17.8775C11.2362 18.122 11.3585 18.4234 11.3585 18.7818C11.3585 19.1401 11.2275 19.4499 10.9655 19.7112C10.7036 19.9731 10.398 20.1041 10.0487 20.1041C9.69943 20.1041 9.39381 19.9731 9.13186 19.7112Z" fill="black"/>
</svg>
