<svg width="20" height="20" viewBox="0 0 20 20" fill="none" xmlns="http://www.w3.org/2000/svg">
<path d="M0.251892 6.20743C0.252179 7.56932 0.72466 8.88897 1.58883 9.94156C2.45301 10.9941 3.6554 11.7145 4.99117 11.98C5.06725 11.1368 5.28363 10.3122 5.63139 9.54034C4.60045 9.19199 3.93786 8.40113 3.78252 7.27839H3.19408V6.77704H3.7425V6.26628C3.7425 6.21214 3.7425 6.15683 3.74721 6.1074H3.19408V5.60487H3.79546C4.06026 4.13613 5.21007 3.26524 6.93772 3.26524C7.30961 3.26524 7.63208 3.30173 7.90158 3.36528V4.22793C7.58681 4.15789 7.26484 4.1255 6.94243 4.13142C5.86088 4.13142 5.13239 4.67985 4.90173 5.60487H7.15779V6.1074H4.82758C4.82405 6.16153 4.82405 6.22155 4.82405 6.2804V6.77704H7.15779V7.27956H4.87701C5.01588 7.98804 5.42779 8.49175 6.05977 8.72594C6.67944 7.69966 7.53165 6.83339 8.54765 6.19701C9.56366 5.56063 10.715 5.17195 11.9088 5.06233C11.6202 3.63303 10.8114 2.36172 9.63903 1.49465C8.46668 0.627584 7.01425 0.226479 5.56308 0.369032C4.11192 0.511585 2.7653 1.18765 1.78408 2.26627C0.802861 3.34489 0.256878 4.74929 0.251892 6.20743ZM19.0819 12.6802C19.0819 14.3969 18.3999 16.0433 17.186 17.2572C15.9722 18.4711 14.3258 19.1531 12.6091 19.1531C10.8924 19.1531 9.246 18.4711 8.03211 17.2572C6.81822 16.0433 6.13627 14.3969 6.13627 12.6802C6.13627 10.9635 6.81822 9.31716 8.03211 8.10327C9.246 6.88939 10.8924 6.20743 12.6091 6.20743C14.3258 6.20743 15.9722 6.88939 17.186 8.10327C18.3999 9.31716 19.0819 10.9635 19.0819 12.6802ZM9.96111 14.2361C10.0423 15.2188 10.8391 15.9837 12.2725 16.0744V16.7993H12.908V16.0696C14.3897 15.9684 15.257 15.1988 15.257 14.0807C15.257 13.0627 14.5945 12.539 13.4094 12.2683L12.908 12.1507V10.1782C13.5435 10.2488 13.9484 10.5866 14.0449 11.055H15.1605C15.0782 10.1088 14.2438 9.36852 12.908 9.28731V8.56118H12.2725V9.30144C11.0062 9.42265 10.1447 10.1629 10.1447 11.2103C10.1447 12.1365 10.7849 12.7261 11.8512 12.9674L12.2725 13.0674V15.1623C11.6205 15.0681 11.1898 14.7198 11.0921 14.2361H9.96111ZM12.2678 12.0059C11.6417 11.8647 11.3027 11.5775 11.3027 11.1444C11.3027 10.6619 11.6688 10.2982 12.2725 10.1923V12.0047H12.2666L12.2678 12.0059ZM12.9998 13.2346C13.7589 13.4052 14.1096 13.6818 14.1096 14.1713C14.1096 14.7292 13.6742 15.1128 12.9092 15.1835V13.2134L12.9998 13.2346Z" fill="black" fill-opacity="0.54"/>
</svg>
