<svg width="19" height="19" viewBox="0 0 19 19" fill="none" xmlns="http://www.w3.org/2000/svg">
<g clip-path="url(#clip0_20_88)">
<path fill-rule="evenodd" clip-rule="evenodd" d="M3.58882 13.105C3.64218 13.0339 3.71136 12.9761 3.7909 12.9364C3.87044 12.8966 3.95815 12.8759 4.04707 12.8759H6.91113C7.06305 12.8759 7.20875 12.9362 7.31617 13.0437C7.4236 13.1511 7.48395 13.2968 7.48395 13.4487C7.48395 13.6006 7.4236 13.7463 7.31617 13.8537C7.20875 13.9612 7.06305 14.0215 6.91113 14.0215H4.33348L1.75582 17.4584H16.6489L14.0713 14.0215H11.4936C11.3417 14.0215 11.196 13.9612 11.0886 13.8537C10.9812 13.7463 10.9208 13.6006 10.9208 13.4487C10.9208 13.2968 10.9812 13.1511 11.0886 13.0437C11.196 12.9362 11.3417 12.8759 11.4936 12.8759H14.3577C14.4466 12.8759 14.5343 12.8966 14.6139 12.9364C14.6934 12.9761 14.7626 13.0339 14.8159 13.105L18.2528 17.6875C18.3166 17.7726 18.3555 17.8738 18.3651 17.9798C18.3746 18.0857 18.3545 18.1922 18.3069 18.2874C18.2593 18.3825 18.1862 18.4625 18.0957 18.5185C18.0052 18.5744 17.9009 18.604 17.7946 18.604H0.610197C0.503819 18.604 0.399542 18.5744 0.309051 18.5185C0.218561 18.4625 0.145431 18.3825 0.0978577 18.2874C0.050284 18.1922 0.0301455 18.0857 0.0396989 17.9798C0.0492522 17.8738 0.0881199 17.7726 0.151947 17.6875L3.58882 13.105Z" fill="black" fill-opacity="0.54"/>
<path fill-rule="evenodd" clip-rule="evenodd" d="M9.20239 1.41964C8.75105 1.41964 8.30413 1.50854 7.88715 1.68126C7.47017 1.85398 7.0913 2.10714 6.77215 2.42628C6.45301 2.74543 6.19985 3.1243 6.02713 3.54128C5.85441 3.95827 5.76551 4.40518 5.76551 4.85652C5.76551 5.30786 5.85441 5.75477 6.02713 6.17176C6.19985 6.58874 6.45301 6.96761 6.77215 7.28676C7.0913 7.6059 7.47017 7.85906 7.88715 8.03178C8.30413 8.2045 8.75105 8.2934 9.20239 8.2934C10.1139 8.2934 10.9881 7.9313 11.6326 7.28676C12.2772 6.64222 12.6393 5.76804 12.6393 4.85652C12.6393 3.945 12.2772 3.07082 11.6326 2.42628C10.9881 1.78174 10.1139 1.41964 9.20239 1.41964ZM4.61989 4.85652C4.61997 3.97465 4.87451 3.11153 5.35297 2.37073C5.83142 1.62994 6.51347 1.04293 7.31727 0.680152C8.12106 0.317372 9.01247 0.19423 9.88452 0.325501C10.7566 0.456771 11.5722 0.836879 12.2336 1.42021C12.895 2.00355 13.374 2.76533 13.6131 3.61415C13.8523 4.46297 13.8415 5.36278 13.5819 6.20559C13.3224 7.04841 12.8252 7.79844 12.15 8.36567C11.4747 8.93291 10.6502 9.29327 9.7752 9.40351V15.74C9.7752 15.8919 9.71485 16.0376 9.60743 16.145C9.50001 16.2524 9.35431 16.3128 9.20239 16.3128C9.05047 16.3128 8.90477 16.2524 8.79735 16.145C8.68993 16.0376 8.62958 15.8919 8.62958 15.74V9.40465C7.52172 9.26507 6.50294 8.72579 5.76461 7.88811C5.02629 7.05043 4.61923 5.97314 4.61989 4.85652Z" fill="black" fill-opacity="0.54"/>
</g>
<defs>
<clipPath id="clip0_20_88">
<rect width="18.33" height="18.33" fill="white" transform="translate(0.037384 0.274017)"/>
</clipPath>
</defs>
</svg>
