<svg width="19" height="20" viewBox="0 0 19 20" fill="none" xmlns="http://www.w3.org/2000/svg">
<path d="M1.6083 19.0607C1.6083 19.0607 0.039093 19.0607 0.039093 17.4915C0.039093 15.9223 1.6083 11.2147 9.45435 11.2147C17.3004 11.2147 18.8696 15.9223 18.8696 17.4915C18.8696 19.0607 17.3004 19.0607 17.3004 19.0607H1.6083ZM9.45435 9.64545C10.7029 9.64545 11.9003 9.14947 12.7831 8.26661C13.666 7.38376 14.162 6.18636 14.162 4.93782C14.162 3.68928 13.666 2.49188 12.7831 1.60903C11.9003 0.726175 10.7029 0.230194 9.45435 0.230194C8.20581 0.230194 7.0084 0.726175 6.12555 1.60903C5.2427 2.49188 4.74672 3.68928 4.74672 4.93782C4.74672 6.18636 5.2427 7.38376 6.12555 8.26661C7.0084 9.14947 8.20581 9.64545 9.45435 9.64545Z" fill="black" fill-opacity="0.54"/>
</svg>
