<svg width="19" height="19" viewBox="0 0 19 19" fill="none" xmlns="http://www.w3.org/2000/svg">
<path d="M18.6193 9.44634C18.6193 11.8771 17.6537 14.2082 15.935 15.927C14.2162 17.6457 11.885 18.6113 9.45434 18.6113C7.02363 18.6113 4.69247 17.6457 2.9737 15.927C1.25493 14.2082 0.289337 11.8771 0.289337 9.44634C0.289337 7.01563 1.25493 4.68448 2.9737 2.96571C4.69247 1.24694 7.02363 0.281342 9.45434 0.281342C11.885 0.281342 14.2162 1.24694 15.935 2.96571C17.6537 4.68448 18.6193 7.01563 18.6193 9.44634ZM9.45434 4.29103C9.45434 4.13911 9.39399 3.99341 9.28656 3.88599C9.17914 3.77857 9.03344 3.71822 8.88152 3.71822C8.72961 3.71822 8.58391 3.77857 8.47649 3.88599C8.36906 3.99341 8.30871 4.13911 8.30871 4.29103V10.592C8.30874 10.6929 8.33546 10.7921 8.38616 10.8794C8.43686 10.9667 8.50974 11.0391 8.59741 11.0892L12.6071 13.3804C12.7387 13.4515 12.8929 13.4684 13.0367 13.4273C13.1805 13.3862 13.3026 13.2906 13.3768 13.1607C13.451 13.0308 13.4715 12.8771 13.4338 12.7323C13.3962 12.5876 13.3034 12.4633 13.1753 12.386L9.45434 10.2597V4.29103Z" fill="black" fill-opacity="0.54"/>
</svg>
